<?xml version="1.0" encoding="utf-8"?>
<!-- Generator: Adobe Illustrator 22.0.1, SVG Export Plug-In . SVG Version: 6.00 Build 0)  -->
<svg version="1.1" id="Layer_1" xmlns="http://www.w3.org/2000/svg" xmlns:xlink="http://www.w3.org/1999/xlink" x="0px" y="0px"
	 viewBox="0 0 11 13" style="enable-background:new 0 0 11 13;" xml:space="preserve">
<style type="text/css">
	.st0{fill:#1A1A1A;}
</style>
<polygon class="st0" points="5,0 5,6 4,6 4,1 3,1 3,6 2,6 2,1 1,1 1,6 0,6 0,0 "/>
<g>
	<rect x="2" y="7" class="st0" width="1" height="4"/>
	<rect x="1" y="11" transform="matrix(-1.836970e-16 1 -1 -1.836970e-16 14 11)" class="st0" width="1" height="3"/>
	<rect x="7" y="9" transform="matrix(-1.836970e-16 1 -1 -1.836970e-16 20 5)" class="st0" width="1" height="7"/>
	<rect y="7" class="st0" width="1" height="4"/>
	<path class="st0" d="M4,7v4h3V7H4z M6,10H5V8h1V10z"/>
	<path class="st0" d="M8,7v4h3V7H8z M10,10H9V8h1V10z"/>
</g>
<polygon class="st0" points="7,1 7,5 11,5 11,6 6,6 6,0 11,0 11,1 "/>
</svg>
